/* XPM */
static char *b606d886626f498d9394dcbe6fc52b64IDZrrckrYDcvhImD[] = {
/* columns rows colors chars-per-pixel */
"64 64 12 1 ",
"  c black",
". c #101010",
"X c #686868",
"o c #B00000",
"O c #E00000",
"+ c #805000",
"@ c #F84848",
"# c #C08800",
"$ c #E8B800",
"% c #F8E800",
"& c #F8F878",
"* c #F8F8F8",
/* pixels */
"                                                                ",
"                                                                ",
"                                                                ",
"                                                                ",
"                                                                ",
"                                                                ",
"                   .                                            ",
"                  ...                                           ",
"                  ...                                           ",
"                  .X..                                          ",
"                 .XX..                      ...                 ",
"                 .XXX..                  ...XX.                 ",
"                 .XXX$.                ..XXXX..                 ",
"                 .XX%%.              #$%XXXX..                  ",
"                  .%%%$.            #%%%XXX...                  ",
"                  #%%%$.          #$%%%%$X...                   ",
"                  #%%%$.         +%%%%%%%...                    ",
"                   $%$$.##$$$##++%%%%%%%$..                     ",
"                   #$$##&&&&&%%$%%%%%%$$.                       ",
"                    +$&&&&&&&&%%%%%%$$..          ##            ",
"                   $%%&&&&&&&&%%%%%$+.          #$&%+           ",
"                  +%%%%&&&&&%$..$%%$+          #&%%%+           ",
"                  #$..%%%%%%%.*..%%$$.        #&%%%$+           ",
"                 #%.*.%%%%%%%..X.%%$$.      #$&%%$$$$+          ",
"                 +%..X%%%%%%%$..$%%$$+     #&&%$$$$$$+          ",
"                +$%#.$%%+$%%%%%%%OO$$$.  $$%%%$$$$$$$+          ",
"                .@%%%%$%%%%%#%%%OOOo$$.++%%$$$$$$$$$$+          ",
"                .O$%%%%#oooo$%%%OOOo$++&#+$$$$$$$$$$$+          ",
"               + .o%%%%%oo@@%%%%OOoo+&#%&&+$$$$$$$$$$.          ",
"              +&++o%%%%%o@@o%%%%%oo$+%%%%#+$$$$$$$$+.           ",
"             +&%%$+%%%%%%oo%%%%%%%$+%%%%%%.$$$$$$+.             ",
"              #%%$$+%%%%%%%%%%%%%%+%%%%$$.$$$$$+.               ",
"              +$$$$##%%%%%%%%%%%%%%%%%$$$.$$$$+                 ",
"               .$$$#%%%%%%%%%%%%%%%%%$$$.+$$$.                  ",
"                .$$$%%%%%%%%%%%%%%%%$$$.  +$$$.                 ",
"                 .+%%%%%%%%%%%%%%%%$$$$.   +$$$.                ",
"                  #%%%%%%%%%%%%%%%%$$#+  ++$$$$$.               ",
"                 +%%%%%%%%%%%%%%%%%$#$+..%$$$$+.                ",
"                 #%%%%%%%%%%%%%%%%%$$$+%$$$$+.                  ",
"                +%%%%%%%%%%%%%%%%$$$$+$$$$..                    ",
"               +++%%%%%%%%%%%%%%$$$$$.$$$.                      ",
"              +&&#+%%%%%%%%%%%%%$$$$$..$$$.                     ",
"              ##%#%+%%%%%%%%%%%$$$$$$. .##$.                    ",
"              +$$$$#%%%%%%%%%$$$$$$$$..+++#$.                   ",
"               #$$$$+$$%%%%$$$$$$$$$$++++...                    ",
"                +$$$+$$$$$$$$$$$$$$$++...                       ",
"                .$$$.$$$$$$$$$$$$$$$..                          ",
"                 +..$$$$$$$$$$$$$$$#.                           ",
"                    ....+#$$$$$$$$$.                            ",
"                         ..+$$$$$+.                             ",
"                           ..##...                              ",
"                           +####.                               ",
"                           +#+##.                               ",
"                           +$#$.                                ",
"                            ...                                 ",
"                                                                ",
"                                                                ",
"                                                                ",
"                                                                ",
"                                                                ",
"                                                                ",
"                                                                ",
"                                                                ",
"                                                                "
};
